<?xml version="1.0" encoding="utf-8"?>
<!-- Generator: Adobe Illustrator 19.1.0, SVG Export Plug-In . SVG Version: 6.00 Build 0)  -->
<svg version="1.1" id="Layer_1" xmlns="http://www.w3.org/2000/svg" xmlns:xlink="http://www.w3.org/1999/xlink" x="0px" y="0px"
	 viewBox="0 0 366.4 116.2" enable-background="new 0 0 366.4 116.2" xml:space="preserve">
<g>
	<polygon fill="#539CD5" points="96.9,28 92.4,23.5 92.4,17.2 96.9,12.8 103.2,12.8 107.7,17.2 107.7,23.5 103.2,28 	"/>
	<polygon fill="#539CD5" points="71,32.9 65.3,38.6 65.3,46.7 71,52.4 79,52.4 84.7,46.7 84.7,38.6 79,32.9 	"/>
	<polygon fill="#539CD5" points="73.6,13.4 77.6,9.5 77.6,3.9 73.6,0 68.1,0 64.1,3.9 64.1,9.5 68.1,13.4 	"/>
	<g>
		<path fill="#F7901E" d="M82.4,54l-1.9,1.9h-11l-7.8-7.8v-11l1.9-1.9l-3.8-3.8h-35L0,56.1v35l24.8,24.8h35l24.8-24.8v-35L82.4,54z
			 M69,84.7l-15.7,15.7H31.2L15.6,84.7V62.6l15.7-15.7h22.1L69,62.6V84.7z"/>
	</g>
	<polygon fill="#FFFFFF" points="154,77.6 116.5,77.6 116.5,32.9 92.3,32.9 92.3,94.1 154,94.1 	"/>
	<g>
		<path fill="#FFFFFF" d="M224.8,86.8V64.2c0-14-8.7-18.9-30.5-18.9c-11.3,0-19.1,0.8-24.4,3.3c-5.3,2.5-8,6.4-9.3,12.9H182
			c1-4.5,5.9-5.3,10.8-5.3c6.1,0,10,1.5,10,4.5c0,2.6-1.5,3.6-5.8,3.9L179,65.4c-15.9,0.7-22,6.2-22,14.8c0,12,9.1,15.9,23.5,15.9
			c11.4,0,18.7-2.1,23.5-6.5c0.1,1.7,0.3,3.3,0.8,4.6h22C225.7,92.5,224.8,90.4,224.8,86.8z M203.3,74.8c0,8.1-8,9.9-15.2,9.9
			c-5.3,0-8-2-8-5.3c0-3,1.9-4.3,5.8-4.6c7.6-0.7,13.7-1.2,17.3-2V74.8z"/>
	</g>
	<g>
		<path fill="#FFFFFF" d="M271.8,45.9c-8.8,0-14.9,2.1-18.6,6.6H253V30.7h-21.4v63.4h20.8v-5h0.2c3.9,4.5,9.8,6.9,19.3,6.9
			c13.9,0,26.7-7.6,26.7-25S285.7,45.9,271.8,45.9z M264.8,81.6c-8.2,0-11.8-3.9-11.8-10.6c0-6.6,3.5-10.6,11.8-10.6
			c7.7,0,11.7,4.6,11.7,10.6C276.5,77.1,273.1,81.6,264.8,81.6z"/>
	</g>
	<path fill="#FFFFFF" d="M334.4,84.1c-2.4,0-4.5-0.2-6.1-0.9c-1.5-0.7-2.4-1.9-2.7-3.8h-25.2c0.7,11.8,10.4,16.5,32.7,16.5
		c22.6,0,33.1-4.6,33.1-16.7c0-8-4.4-13.1-16-14.2l-20.4-1.8c-4.6-0.4-5.7-1.7-5.7-2.9c0-1.8,1.2-3.3,7.6-3.3c3.2,0,5.1,0.5,6.3,1.2
		c1.2,0.7,1.6,1.7,1.6,2.9h24.2c-0.4-13.3-16.5-16-31-16c-20.9,0-31.2,4.7-31.2,15.8c0,8.1,3.6,13.1,16,14.4l20.9,2.1
		c2.2,0.3,2.9,1.5,2.9,2.9C341.5,82.7,339.9,84.1,334.4,84.1z"/>
	<rect x="92.3" y="103" fill="#539CD5" width="5" height="12.7"/>
	<polygon fill="#539CD5" points="110.7,110.1 110.6,110.1 105.5,103 99.8,103 99.8,115.8 104.6,115.8 104.6,108.6 104.6,108.6 
		110,115.8 115.5,115.8 115.5,103 110.7,103 	"/>
	<polygon fill="#539CD5" points="128.8,110.1 128.8,110.1 123.7,103 117.9,103 117.9,115.8 122.7,115.8 122.7,108.6 122.8,108.6 
		128.1,115.8 133.6,115.8 133.6,103 128.8,103 	"/>
	<g>
		<path fill="#539CD5" d="M144.1,102.6c-3,0-8.7,0.2-8.7,6.8s5.6,6.8,8.7,6.8c3,0,8.7-0.2,8.7-6.8S147.2,102.6,144.1,102.6z
			 M144.1,113c-2,0-3.3-1-3.3-3.6s1.3-3.6,3.3-3.6c2,0,3.3,1,3.3,3.6S146.2,113,144.1,113z"/>
	</g>
	<polygon fill="#539CD5" points="163.8,103 161,111.2 160.9,111.2 158.1,103 152.6,103 158.3,115.8 163.6,115.8 169.3,103 	"/>
	<g>
		<path fill="#539CD5" d="M178.5,103h-6.2l-5.4,12.7h5.3l0.5-1.5h5.2l0.5,1.5h5.3L178.5,103z M173.9,111.2l1.5-4.3h0l1.5,4.3H173.9z
			"/>
	</g>
	<polygon fill="#539CD5" points="182.3,106.2 187,106.2 187,115.8 192,115.8 192,106.2 196.6,106.2 196.6,103 182.3,103 	"/>
	<rect x="197.8" y="103" fill="#539CD5" width="5" height="12.7"/>
	<g>
		<path fill="#539CD5" d="M213.4,102.6c-3.1,0-8.7,0.2-8.7,6.8s5.6,6.8,8.7,6.8c3,0,8.7-0.2,8.7-6.8S216.4,102.6,213.4,102.6z
			 M213.4,113c-2.1,0-3.4-1-3.4-3.6s1.3-3.6,3.4-3.6c2,0,3.3,1,3.3,3.6S215.4,113,213.4,113z"/>
	</g>
	<polygon fill="#539CD5" points="234.8,110.1 234.7,110.1 229.6,103 223.9,103 223.9,115.8 228.7,115.8 228.7,108.6 228.7,108.6 
		234.1,115.8 239.6,115.8 239.6,103 234.8,103 	"/>
	<g>
		<path fill="#539CD5" d="M264.8,114.3l-0.2-2.8c-0.1-1.1-0.7-1.7-1.5-2v0c1.5-0.4,2-1.7,2-2.9c0-1.4-0.8-2.6-1.7-3.1
			c-0.7-0.3-1.6-0.5-3-0.5h-10.6v12.7h5v-3.9h3.6c0.9,0,1.2,0.6,1.3,1.5c0.1,1.5,0.1,2,0.3,2.4h5.5
			C265.1,115.4,264.8,114.8,264.8,114.3z M258.3,108.6h-3.6v-2.4h3.5c0.8,0,1.5,0.2,1.5,1.2C259.7,108.2,259.3,108.6,258.3,108.6z"
			/>
	</g>
	<g>
		<path fill="#539CD5" d="M291.8,103h-6.2l-5.3,12.4v-2.7h-8.5v-1.7h7.9v-3.1h-7.9v-1.7h8.5V103h-13.5v12.7h18.7l0.5-1.5h5.2
			l0.5,1.5h5.3L291.8,103z M287.2,111.2l1.5-4.3h0l1.5,4.3H287.2z"/>
	</g>
	<polygon fill="#539CD5" points="302.9,103 297.9,103 297.9,115.8 310.7,115.8 310.7,112.3 302.9,112.3 	"/>
	<rect x="312.1" y="103" fill="#539CD5" width="5" height="12.7"/>
	<polygon fill="#539CD5" points="319.3,106.2 326.4,106.2 318.8,113.1 318.8,115.8 333,115.8 333,112.5 325.8,112.5 333.2,105.8 
		333.2,103 319.3,103 	"/>
	<polygon fill="#539CD5" points="334.8,115.8 348.4,115.8 348.4,112.7 339.9,112.7 339.9,110.9 347.8,110.9 347.8,107.8 
		339.9,107.8 339.9,106.1 348.4,106.1 348.4,103 334.8,103 	"/>
	<g>
		<path fill="#539CD5" d="M359.8,103H350v12.7h9.9c4.2,0,6.5-1.9,6.5-6.4C366.4,104.7,364.1,103,359.8,103z M357.9,112.5H355v-6.3
			h2.9c2.3,0,3.2,1.1,3.2,3.2C361.2,111.4,360.2,112.5,357.9,112.5z"/>
	</g>
</g>
</svg>
